G04 #@! TF.GenerationSoftware,KiCad,Pcbnew,5.1.9*
G04 #@! TF.CreationDate,2021-01-09T08:42:39+01:00*
G04 #@! TF.ProjectId,CH330,43483333-302e-46b6-9963-61645f706362,rev?*
G04 #@! TF.SameCoordinates,Original*
G04 #@! TF.FileFunction,Legend,Top*
G04 #@! TF.FilePolarity,Positive*
%FSLAX46Y46*%
G04 Gerber Fmt 4.6, Leading zero omitted, Abs format (unit mm)*
G04 Created by KiCad (PCBNEW 5.1.9) date 2021-01-09 08:42:39*
%MOMM*%
%LPD*%
G01*
G04 APERTURE LIST*
%ADD10C,0.200000*%
%ADD11C,0.120000*%
%ADD12C,0.150000*%
G04 APERTURE END LIST*
D10*
X189841421Y-78100000D02*
G75*
G03*
X189841421Y-78100000I-141421J0D01*
G01*
D11*
X185726190Y-75833333D02*
X185488095Y-76000000D01*
X185726190Y-76119047D02*
X185226190Y-76119047D01*
X185226190Y-75928571D01*
X185250000Y-75880952D01*
X185273809Y-75857142D01*
X185321428Y-75833333D01*
X185392857Y-75833333D01*
X185440476Y-75857142D01*
X185464285Y-75880952D01*
X185488095Y-75928571D01*
X185488095Y-76119047D01*
X185226190Y-75666666D02*
X185726190Y-75333333D01*
X185226190Y-75333333D02*
X185726190Y-75666666D01*
X185226190Y-84630952D02*
X185226190Y-84345238D01*
X185726190Y-84488095D02*
X185226190Y-84488095D01*
X185226190Y-84226190D02*
X185726190Y-83892857D01*
X185226190Y-83892857D02*
X185726190Y-84226190D01*
X179830000Y-84580000D02*
X181750000Y-84580000D01*
X181750000Y-75420000D02*
X179830000Y-75420000D01*
X193737221Y-75290000D02*
X194062779Y-75290000D01*
X193737221Y-76310000D02*
X194062779Y-76310000D01*
X194062779Y-83690000D02*
X193737221Y-83690000D01*
X194062779Y-84710000D02*
X193737221Y-84710000D01*
X186900000Y-76535000D02*
X189185000Y-76535000D01*
X189185000Y-76535000D02*
X189185000Y-75065000D01*
X189185000Y-75065000D02*
X186900000Y-75065000D01*
X189185000Y-83465000D02*
X186900000Y-83465000D01*
X189185000Y-84935000D02*
X189185000Y-83465000D01*
X186900000Y-84935000D02*
X189185000Y-84935000D01*
D12*
X188825000Y-77475000D02*
X187425000Y-77475000D01*
X188825000Y-82575000D02*
X192975000Y-82575000D01*
X188825000Y-77425000D02*
X192975000Y-77425000D01*
X188825000Y-82575000D02*
X188825000Y-82430000D01*
X192975000Y-82575000D02*
X192975000Y-82430000D01*
X192975000Y-77425000D02*
X192975000Y-77570000D01*
X188825000Y-77425000D02*
X188825000Y-77475000D01*
D11*
X190637221Y-75290000D02*
X190962779Y-75290000D01*
X190637221Y-76310000D02*
X190962779Y-76310000D01*
X190637221Y-84710000D02*
X190962779Y-84710000D01*
X190637221Y-83690000D02*
X190962779Y-83690000D01*
X185290000Y-78037221D02*
X185290000Y-78362779D01*
X186310000Y-78037221D02*
X186310000Y-78362779D01*
X185290000Y-81762779D02*
X185290000Y-81437221D01*
X186310000Y-81762779D02*
X186310000Y-81437221D01*
D12*
X180352380Y-80738095D02*
X179352380Y-80738095D01*
X179352380Y-80357142D01*
X179400000Y-80261904D01*
X179447619Y-80214285D01*
X179542857Y-80166666D01*
X179685714Y-80166666D01*
X179780952Y-80214285D01*
X179828571Y-80261904D01*
X179876190Y-80357142D01*
X179876190Y-80738095D01*
X180352380Y-79214285D02*
X180352380Y-79785714D01*
X180352380Y-79500000D02*
X179352380Y-79500000D01*
X179495238Y-79595238D01*
X179590476Y-79690476D01*
X179638095Y-79785714D01*
M02*
