G04 #@! TF.GenerationSoftware,KiCad,Pcbnew,5.1.9*
G04 #@! TF.CreationDate,2021-01-09T08:42:39+01:00*
G04 #@! TF.ProjectId,CH330,43483333-302e-46b6-9963-61645f706362,rev?*
G04 #@! TF.SameCoordinates,Original*
G04 #@! TF.FileFunction,Legend,Bot*
G04 #@! TF.FilePolarity,Positive*
%FSLAX46Y46*%
G04 Gerber Fmt 4.6, Leading zero omitted, Abs format (unit mm)*
G04 Created by KiCad (PCBNEW 5.1.9) date 2021-01-09 08:42:39*
%MOMM*%
%LPD*%
G01*
G04 APERTURE LIST*
%ADD10C,0.120000*%
G04 APERTURE END LIST*
D10*
X195226190Y-80819047D02*
X195226190Y-81104761D01*
X195726190Y-80961904D02*
X195226190Y-80961904D01*
X195226190Y-81223809D02*
X195726190Y-81557142D01*
X195226190Y-81557142D02*
X195726190Y-81223809D01*
X195726190Y-78616666D02*
X195488095Y-78450000D01*
X195726190Y-78330952D02*
X195226190Y-78330952D01*
X195226190Y-78521428D01*
X195250000Y-78569047D01*
X195273809Y-78592857D01*
X195321428Y-78616666D01*
X195392857Y-78616666D01*
X195440476Y-78592857D01*
X195464285Y-78569047D01*
X195488095Y-78521428D01*
X195488095Y-78330952D01*
X195226190Y-78783333D02*
X195726190Y-79116666D01*
X195226190Y-79116666D02*
X195726190Y-78783333D01*
X195250000Y-75919047D02*
X195226190Y-75871428D01*
X195226190Y-75800000D01*
X195250000Y-75728571D01*
X195297619Y-75680952D01*
X195345238Y-75657142D01*
X195440476Y-75633333D01*
X195511904Y-75633333D01*
X195607142Y-75657142D01*
X195654761Y-75680952D01*
X195702380Y-75728571D01*
X195726190Y-75800000D01*
X195726190Y-75847619D01*
X195702380Y-75919047D01*
X195678571Y-75942857D01*
X195511904Y-75942857D01*
X195511904Y-75847619D01*
X195726190Y-76157142D02*
X195226190Y-76157142D01*
X195726190Y-76442857D01*
X195226190Y-76442857D01*
X195726190Y-76680952D02*
X195226190Y-76680952D01*
X195226190Y-76800000D01*
X195250000Y-76871428D01*
X195297619Y-76919047D01*
X195345238Y-76942857D01*
X195440476Y-76966666D01*
X195511904Y-76966666D01*
X195607142Y-76942857D01*
X195654761Y-76919047D01*
X195702380Y-76871428D01*
X195726190Y-76800000D01*
X195726190Y-76680952D01*
X195226190Y-83804761D02*
X195226190Y-83566666D01*
X195464285Y-83542857D01*
X195440476Y-83566666D01*
X195416666Y-83614285D01*
X195416666Y-83733333D01*
X195440476Y-83780952D01*
X195464285Y-83804761D01*
X195511904Y-83828571D01*
X195630952Y-83828571D01*
X195678571Y-83804761D01*
X195702380Y-83780952D01*
X195726190Y-83733333D01*
X195726190Y-83614285D01*
X195702380Y-83566666D01*
X195678571Y-83542857D01*
X195226190Y-83971428D02*
X195726190Y-84138095D01*
X195226190Y-84304761D01*
M02*
