M48
; DRILL file {KiCad 5.1.9} date Sat Jan  9 08:42:35 2021
; FORMAT={-:-/ absolute / inch / decimal}
; #@! TF.CreationDate,2021-01-09T08:42:35+01:00
; #@! TF.GenerationSoftware,Kicad,Pcbnew,5.1.9
; #@! TF.FileFunction,Plated,1,2,PTH
FMAT,2
INCH
T1C0.0118
T2C0.0236
T3C0.0394
%
G90
G05
T1
X7.1811Y-3.1594
X7.2697Y-3.1398
X7.2756Y-3.1929
X7.3031Y-3.315
X7.3583Y-3.0748
X7.3583Y-3.126
X7.3701Y-3.0315
X7.5039Y-3.0394
X7.5039Y-3.1102
X7.5039Y-3.1732
X7.5039Y-3.2362
X7.5433Y-3.0421
X7.5709Y-3.1969
X7.5787Y-3.2598
X7.622Y-3.2721
X7.6758Y-3.1746
X7.6772Y-3.2677
X7.7008Y-3.0433
X7.7165Y-3.2283
T3
X7.7717Y-3.0
X7.7717Y-3.1
X7.7717Y-3.2
X7.7717Y-3.3
T2
G00X7.0522Y-2.9795
M15
G01X7.0285Y-2.9795
M16
G05
G00X7.0522Y-3.3197
M15
G01X7.0285Y-3.3197
M16
G05
G00X7.2266Y-2.9795
M15
G01X7.1833Y-2.9795
M16
G05
G00X7.2266Y-3.3197
M15
G01X7.1833Y-3.3197
M16
G05
T0
M30
