G04 #@! TF.GenerationSoftware,KiCad,Pcbnew,5.1.9*
G04 #@! TF.CreationDate,2021-01-09T08:42:39+01:00*
G04 #@! TF.ProjectId,CH330,43483333-302e-46b6-9963-61645f706362,rev?*
G04 #@! TF.SameCoordinates,Original*
G04 #@! TF.FileFunction,Copper,L2,Bot*
G04 #@! TF.FilePolarity,Positive*
%FSLAX46Y46*%
G04 Gerber Fmt 4.6, Leading zero omitted, Abs format (unit mm)*
G04 Created by KiCad (PCBNEW 5.1.9) date 2021-01-09 08:42:39*
%MOMM*%
%LPD*%
G01*
G04 APERTURE LIST*
G04 #@! TA.AperFunction,ComponentPad*
%ADD10O,2.100000X1.000000*%
G04 #@! TD*
G04 #@! TA.AperFunction,ComponentPad*
%ADD11O,1.600000X1.000000*%
G04 #@! TD*
G04 #@! TA.AperFunction,ComponentPad*
%ADD12O,1.700000X1.700000*%
G04 #@! TD*
G04 #@! TA.AperFunction,ComponentPad*
%ADD13R,1.700000X1.700000*%
G04 #@! TD*
G04 #@! TA.AperFunction,ViaPad*
%ADD14C,0.600000*%
G04 #@! TD*
G04 #@! TA.AperFunction,Conductor*
%ADD15C,0.600000*%
G04 #@! TD*
G04 #@! TA.AperFunction,Conductor*
%ADD16C,0.250000*%
G04 #@! TD*
G04 #@! TA.AperFunction,Conductor*
%ADD17C,0.254000*%
G04 #@! TD*
G04 #@! TA.AperFunction,Conductor*
%ADD18C,0.100000*%
G04 #@! TD*
G04 APERTURE END LIST*
D10*
X183005000Y-75680000D03*
X183005000Y-84320000D03*
D11*
X178825000Y-75680000D03*
X178825000Y-84320000D03*
D12*
X197400000Y-83820000D03*
X197400000Y-81280000D03*
X197400000Y-78740000D03*
D13*
X197400000Y-76200000D03*
D14*
X185500000Y-84200000D03*
X193600000Y-83112500D03*
X192500000Y-82800000D03*
X192300000Y-81200000D03*
X190600000Y-82200000D03*
X190600000Y-80600000D03*
X190600000Y-79000000D03*
X190600000Y-77200000D03*
X195600000Y-77300000D03*
X184800000Y-81100000D03*
X187200000Y-77000000D03*
X195000000Y-83000000D03*
X196000000Y-82000000D03*
X194965000Y-80635000D03*
X191600000Y-77270000D03*
X182400000Y-80250000D03*
X186900000Y-79400000D03*
X184650000Y-79750000D03*
X186900000Y-78100000D03*
D15*
X185500000Y-84200000D02*
X192500000Y-84200000D01*
X193587500Y-83112500D02*
X193600000Y-83112500D01*
X192500000Y-84200000D02*
X193587500Y-83112500D01*
X194965000Y-80635000D02*
X191600000Y-77270000D01*
D16*
X182525001Y-80375001D02*
X185874999Y-80375001D01*
X182400000Y-80250000D02*
X182525001Y-80375001D01*
X185874999Y-80375001D02*
X185924999Y-80375001D01*
X185924999Y-80375001D02*
X186900000Y-79400000D01*
X184650000Y-79750000D02*
X185250000Y-79750000D01*
X185250000Y-79750000D02*
X186900000Y-78100000D01*
D17*
X197697473Y-75002668D02*
X197887433Y-75060021D01*
X198062631Y-75153176D01*
X198216395Y-75278582D01*
X198342876Y-75431472D01*
X198437253Y-75606017D01*
X198495928Y-75795565D01*
X198519000Y-76015087D01*
X198519000Y-78224748D01*
X198490898Y-78156903D01*
X198356180Y-77955283D01*
X198184717Y-77783820D01*
X197983097Y-77649102D01*
X197759069Y-77556307D01*
X197521243Y-77509000D01*
X197278757Y-77509000D01*
X197040931Y-77556307D01*
X196816903Y-77649102D01*
X196615283Y-77783820D01*
X196443820Y-77955283D01*
X196309102Y-78156903D01*
X196216307Y-78380931D01*
X196169000Y-78618757D01*
X196169000Y-78861243D01*
X196216307Y-79099069D01*
X196309102Y-79323097D01*
X196443820Y-79524717D01*
X196615283Y-79696180D01*
X196816903Y-79830898D01*
X197040931Y-79923693D01*
X197278757Y-79971000D01*
X197521243Y-79971000D01*
X197759069Y-79923693D01*
X197983097Y-79830898D01*
X198184717Y-79696180D01*
X198356180Y-79524717D01*
X198490898Y-79323097D01*
X198519000Y-79255251D01*
X198519001Y-80764749D01*
X198490898Y-80696903D01*
X198356180Y-80495283D01*
X198184717Y-80323820D01*
X197983097Y-80189102D01*
X197759069Y-80096307D01*
X197521243Y-80049000D01*
X197278757Y-80049000D01*
X197040931Y-80096307D01*
X196816903Y-80189102D01*
X196615283Y-80323820D01*
X196443820Y-80495283D01*
X196309102Y-80696903D01*
X196216307Y-80920931D01*
X196169000Y-81158757D01*
X196169000Y-81401243D01*
X196216307Y-81639069D01*
X196309102Y-81863097D01*
X196443820Y-82064717D01*
X196615283Y-82236180D01*
X196816903Y-82370898D01*
X197040931Y-82463693D01*
X197278757Y-82511000D01*
X197521243Y-82511000D01*
X197759069Y-82463693D01*
X197983097Y-82370898D01*
X198184717Y-82236180D01*
X198356180Y-82064717D01*
X198490898Y-81863097D01*
X198519001Y-81795251D01*
X198519001Y-83304750D01*
X198490898Y-83236903D01*
X198356180Y-83035283D01*
X198184717Y-82863820D01*
X197983097Y-82729102D01*
X197759069Y-82636307D01*
X197521243Y-82589000D01*
X197278757Y-82589000D01*
X197040931Y-82636307D01*
X196816903Y-82729102D01*
X196615283Y-82863820D01*
X196443820Y-83035283D01*
X196309102Y-83236903D01*
X196216307Y-83460931D01*
X196169000Y-83698757D01*
X196169000Y-83941243D01*
X196216307Y-84179069D01*
X196309102Y-84403097D01*
X196443820Y-84604717D01*
X196615283Y-84776180D01*
X196816903Y-84910898D01*
X197040931Y-85003693D01*
X197117884Y-85019000D01*
X178523520Y-85019000D01*
X178302523Y-84997331D01*
X178112568Y-84939979D01*
X177937369Y-84846824D01*
X177783605Y-84721418D01*
X177657124Y-84568528D01*
X177562747Y-84393983D01*
X177504072Y-84204433D01*
X177503607Y-84200000D01*
X184815705Y-84200000D01*
X184819000Y-84233453D01*
X184819000Y-84267073D01*
X184825559Y-84300047D01*
X184828854Y-84333499D01*
X184838612Y-84365668D01*
X184845171Y-84398640D01*
X184858035Y-84429696D01*
X184867794Y-84461868D01*
X184883642Y-84491517D01*
X184896506Y-84522574D01*
X184915183Y-84550525D01*
X184931030Y-84580174D01*
X184952357Y-84606162D01*
X184971033Y-84634112D01*
X184994800Y-84657879D01*
X185016130Y-84683870D01*
X185042121Y-84705200D01*
X185065888Y-84728967D01*
X185093838Y-84747643D01*
X185119826Y-84768970D01*
X185149475Y-84784817D01*
X185177426Y-84803494D01*
X185208483Y-84816358D01*
X185238132Y-84832206D01*
X185270304Y-84841965D01*
X185301360Y-84854829D01*
X185334332Y-84861388D01*
X185366501Y-84871146D01*
X185399953Y-84874441D01*
X185432927Y-84881000D01*
X192466547Y-84881000D01*
X192500000Y-84884295D01*
X192533453Y-84881000D01*
X192633499Y-84871146D01*
X192761868Y-84832206D01*
X192880174Y-84768970D01*
X192983870Y-84683870D01*
X193005204Y-84657874D01*
X193988180Y-83674899D01*
X194006162Y-83660143D01*
X194034112Y-83641467D01*
X194057879Y-83617700D01*
X194083870Y-83596370D01*
X194105200Y-83570379D01*
X194128967Y-83546612D01*
X194147643Y-83518662D01*
X194168970Y-83492674D01*
X194184817Y-83463025D01*
X194203494Y-83435074D01*
X194216358Y-83404017D01*
X194232206Y-83374368D01*
X194241965Y-83342196D01*
X194254829Y-83311140D01*
X194261388Y-83278168D01*
X194271146Y-83245999D01*
X194274441Y-83212547D01*
X194281000Y-83179573D01*
X194281000Y-83145953D01*
X194284295Y-83112500D01*
X194281000Y-83079047D01*
X194281000Y-83045427D01*
X194274441Y-83012453D01*
X194271146Y-82979001D01*
X194261388Y-82946832D01*
X194254829Y-82913860D01*
X194241965Y-82882804D01*
X194232206Y-82850632D01*
X194216358Y-82820983D01*
X194203494Y-82789926D01*
X194184817Y-82761975D01*
X194168970Y-82732326D01*
X194147643Y-82706338D01*
X194128967Y-82678388D01*
X194105200Y-82654621D01*
X194083870Y-82628630D01*
X194057879Y-82607300D01*
X194034112Y-82583533D01*
X194006162Y-82564857D01*
X193980174Y-82543530D01*
X193950525Y-82527683D01*
X193922574Y-82509006D01*
X193891517Y-82496142D01*
X193861868Y-82480294D01*
X193829696Y-82470535D01*
X193798640Y-82457671D01*
X193765668Y-82451112D01*
X193733499Y-82441354D01*
X193700047Y-82438059D01*
X193667073Y-82431500D01*
X193620950Y-82431500D01*
X193587499Y-82428205D01*
X193554048Y-82431500D01*
X193532927Y-82431500D01*
X193512213Y-82435620D01*
X193454001Y-82441354D01*
X193325632Y-82480294D01*
X193207326Y-82543530D01*
X193103630Y-82628630D01*
X193082304Y-82654616D01*
X192217922Y-83519000D01*
X185432927Y-83519000D01*
X185399953Y-83525559D01*
X185366501Y-83528854D01*
X185334332Y-83538612D01*
X185301360Y-83545171D01*
X185270304Y-83558035D01*
X185238132Y-83567794D01*
X185208483Y-83583642D01*
X185177426Y-83596506D01*
X185149475Y-83615183D01*
X185119826Y-83631030D01*
X185093838Y-83652357D01*
X185065888Y-83671033D01*
X185042121Y-83694800D01*
X185016130Y-83716130D01*
X184994800Y-83742121D01*
X184971033Y-83765888D01*
X184952357Y-83793838D01*
X184931030Y-83819826D01*
X184915183Y-83849475D01*
X184896506Y-83877426D01*
X184883642Y-83908483D01*
X184867794Y-83938132D01*
X184858035Y-83970304D01*
X184845171Y-84001360D01*
X184838612Y-84034332D01*
X184828854Y-84066501D01*
X184825559Y-84099953D01*
X184819000Y-84132927D01*
X184819000Y-84166547D01*
X184815705Y-84200000D01*
X177503607Y-84200000D01*
X177481000Y-83984914D01*
X177481000Y-82820465D01*
X181799000Y-82820465D01*
X181799000Y-82959535D01*
X181826131Y-83095933D01*
X181879351Y-83224416D01*
X181956614Y-83340049D01*
X182054951Y-83438386D01*
X182170584Y-83515649D01*
X182299067Y-83568869D01*
X182435465Y-83596000D01*
X182574535Y-83596000D01*
X182710933Y-83568869D01*
X182839416Y-83515649D01*
X182955049Y-83438386D01*
X183053386Y-83340049D01*
X183130649Y-83224416D01*
X183183869Y-83095933D01*
X183211000Y-82959535D01*
X183211000Y-82820465D01*
X183183869Y-82684067D01*
X183130649Y-82555584D01*
X183053386Y-82439951D01*
X182955049Y-82341614D01*
X182839416Y-82264351D01*
X182710933Y-82211131D01*
X182574535Y-82184000D01*
X182435465Y-82184000D01*
X182299067Y-82211131D01*
X182170584Y-82264351D01*
X182054951Y-82341614D01*
X181956614Y-82439951D01*
X181879351Y-82555584D01*
X181826131Y-82684067D01*
X181799000Y-82820465D01*
X177481000Y-82820465D01*
X177481000Y-80182927D01*
X181719000Y-80182927D01*
X181719000Y-80317073D01*
X181745171Y-80448640D01*
X181796506Y-80572574D01*
X181871033Y-80684112D01*
X181965888Y-80778967D01*
X182077426Y-80853494D01*
X182201360Y-80904829D01*
X182332927Y-80931000D01*
X182467073Y-80931000D01*
X182598640Y-80904829D01*
X182656166Y-80881001D01*
X185900153Y-80881001D01*
X185924999Y-80883448D01*
X185949845Y-80881001D01*
X185949853Y-80881001D01*
X186024192Y-80873679D01*
X186119574Y-80844746D01*
X186207478Y-80797760D01*
X186284526Y-80734528D01*
X186300375Y-80715216D01*
X186934592Y-80081000D01*
X186967073Y-80081000D01*
X187098640Y-80054829D01*
X187222574Y-80003494D01*
X187334112Y-79928967D01*
X187428967Y-79834112D01*
X187503494Y-79722574D01*
X187554829Y-79598640D01*
X187581000Y-79467073D01*
X187581000Y-79332927D01*
X187554829Y-79201360D01*
X187503494Y-79077426D01*
X187428967Y-78965888D01*
X187334112Y-78871033D01*
X187222574Y-78796506D01*
X187110298Y-78750000D01*
X187222574Y-78703494D01*
X187334112Y-78628967D01*
X187428967Y-78534112D01*
X187503494Y-78422574D01*
X187554829Y-78298640D01*
X187581000Y-78167073D01*
X187581000Y-78032927D01*
X187554829Y-77901360D01*
X187503494Y-77777426D01*
X187428967Y-77665888D01*
X187334112Y-77571033D01*
X187222574Y-77496506D01*
X187098640Y-77445171D01*
X186967073Y-77419000D01*
X186832927Y-77419000D01*
X186701360Y-77445171D01*
X186577426Y-77496506D01*
X186465888Y-77571033D01*
X186371033Y-77665888D01*
X186296506Y-77777426D01*
X186245171Y-77901360D01*
X186219000Y-78032927D01*
X186219000Y-78065408D01*
X185071682Y-79212727D01*
X184972574Y-79146506D01*
X184848640Y-79095171D01*
X184717073Y-79069000D01*
X184582927Y-79069000D01*
X184451360Y-79095171D01*
X184327426Y-79146506D01*
X184215888Y-79221033D01*
X184121033Y-79315888D01*
X184046506Y-79427426D01*
X183995171Y-79551360D01*
X183969000Y-79682927D01*
X183969000Y-79817073D01*
X183979329Y-79869001D01*
X182964456Y-79869001D01*
X182928967Y-79815888D01*
X182834112Y-79721033D01*
X182722574Y-79646506D01*
X182598640Y-79595171D01*
X182467073Y-79569000D01*
X182332927Y-79569000D01*
X182201360Y-79595171D01*
X182077426Y-79646506D01*
X181965888Y-79721033D01*
X181871033Y-79815888D01*
X181796506Y-79927426D01*
X181745171Y-80051360D01*
X181719000Y-80182927D01*
X177481000Y-80182927D01*
X177481000Y-77040465D01*
X181799000Y-77040465D01*
X181799000Y-77179535D01*
X181826131Y-77315933D01*
X181879351Y-77444416D01*
X181956614Y-77560049D01*
X182054951Y-77658386D01*
X182170584Y-77735649D01*
X182299067Y-77788869D01*
X182435465Y-77816000D01*
X182574535Y-77816000D01*
X182710933Y-77788869D01*
X182839416Y-77735649D01*
X182955049Y-77658386D01*
X183053386Y-77560049D01*
X183130649Y-77444416D01*
X183183869Y-77315933D01*
X183193005Y-77270000D01*
X190915705Y-77270000D01*
X190919000Y-77303453D01*
X190919000Y-77337073D01*
X190925559Y-77370048D01*
X190928854Y-77403498D01*
X190938611Y-77435663D01*
X190945171Y-77468640D01*
X190958038Y-77499704D01*
X190967795Y-77531868D01*
X190983638Y-77561508D01*
X190996506Y-77592574D01*
X191015190Y-77620536D01*
X191031031Y-77650173D01*
X191052349Y-77676150D01*
X191071033Y-77704112D01*
X191165888Y-77798967D01*
X191165891Y-77798969D01*
X194436033Y-81069112D01*
X194530888Y-81163967D01*
X194558841Y-81182644D01*
X194584826Y-81203970D01*
X194614476Y-81219818D01*
X194642426Y-81238494D01*
X194673479Y-81251357D01*
X194703131Y-81267206D01*
X194735306Y-81276966D01*
X194766360Y-81289829D01*
X194799331Y-81296388D01*
X194831501Y-81306146D01*
X194864953Y-81309441D01*
X194897927Y-81316000D01*
X194931547Y-81316000D01*
X194965000Y-81319295D01*
X194998453Y-81316000D01*
X195032073Y-81316000D01*
X195065047Y-81309441D01*
X195098499Y-81306146D01*
X195130668Y-81296388D01*
X195163640Y-81289829D01*
X195194696Y-81276965D01*
X195226868Y-81267206D01*
X195256517Y-81251358D01*
X195287574Y-81238494D01*
X195315525Y-81219817D01*
X195345174Y-81203970D01*
X195371159Y-81182645D01*
X195399112Y-81163967D01*
X195422887Y-81140192D01*
X195448869Y-81118869D01*
X195470192Y-81092887D01*
X195493967Y-81069112D01*
X195512645Y-81041159D01*
X195533970Y-81015174D01*
X195549817Y-80985525D01*
X195568494Y-80957574D01*
X195581358Y-80926517D01*
X195597206Y-80896868D01*
X195606965Y-80864696D01*
X195619829Y-80833640D01*
X195626388Y-80800668D01*
X195636146Y-80768499D01*
X195639441Y-80735047D01*
X195646000Y-80702073D01*
X195646000Y-80668453D01*
X195649295Y-80635000D01*
X195646000Y-80601547D01*
X195646000Y-80567927D01*
X195639441Y-80534953D01*
X195636146Y-80501501D01*
X195626388Y-80469331D01*
X195619829Y-80436360D01*
X195606966Y-80405306D01*
X195597206Y-80373131D01*
X195581357Y-80343479D01*
X195568494Y-80312426D01*
X195549818Y-80284476D01*
X195533970Y-80254826D01*
X195512644Y-80228841D01*
X195493967Y-80200888D01*
X195399112Y-80106033D01*
X192128969Y-76835891D01*
X192128967Y-76835888D01*
X192034112Y-76741033D01*
X192006150Y-76722349D01*
X191980173Y-76701031D01*
X191950536Y-76685190D01*
X191922574Y-76666506D01*
X191891508Y-76653638D01*
X191861868Y-76637795D01*
X191829704Y-76628038D01*
X191798640Y-76615171D01*
X191765663Y-76608611D01*
X191733498Y-76598854D01*
X191700048Y-76595559D01*
X191667073Y-76589000D01*
X191633453Y-76589000D01*
X191600000Y-76585705D01*
X191566547Y-76589000D01*
X191532927Y-76589000D01*
X191499952Y-76595559D01*
X191466502Y-76598854D01*
X191434337Y-76608611D01*
X191401360Y-76615171D01*
X191370296Y-76628038D01*
X191338132Y-76637795D01*
X191308492Y-76653638D01*
X191277426Y-76666506D01*
X191249464Y-76685190D01*
X191219827Y-76701031D01*
X191193850Y-76722349D01*
X191165888Y-76741033D01*
X191142111Y-76764810D01*
X191116131Y-76786131D01*
X191094810Y-76812111D01*
X191071033Y-76835888D01*
X191052349Y-76863850D01*
X191031031Y-76889827D01*
X191015190Y-76919464D01*
X190996506Y-76947426D01*
X190983638Y-76978492D01*
X190967795Y-77008132D01*
X190958038Y-77040296D01*
X190945171Y-77071360D01*
X190938611Y-77104337D01*
X190928854Y-77136502D01*
X190925559Y-77169952D01*
X190919000Y-77202927D01*
X190919000Y-77236547D01*
X190915705Y-77270000D01*
X183193005Y-77270000D01*
X183211000Y-77179535D01*
X183211000Y-77040465D01*
X183183869Y-76904067D01*
X183130649Y-76775584D01*
X183053386Y-76659951D01*
X182955049Y-76561614D01*
X182839416Y-76484351D01*
X182710933Y-76431131D01*
X182574535Y-76404000D01*
X182435465Y-76404000D01*
X182299067Y-76431131D01*
X182170584Y-76484351D01*
X182054951Y-76561614D01*
X181956614Y-76659951D01*
X181879351Y-76775584D01*
X181826131Y-76904067D01*
X181799000Y-77040465D01*
X177481000Y-77040465D01*
X177481000Y-76023520D01*
X177502668Y-75802527D01*
X177560021Y-75612567D01*
X177653176Y-75437369D01*
X177778582Y-75283605D01*
X177931472Y-75157124D01*
X178106017Y-75062747D01*
X178295565Y-75004072D01*
X178515087Y-74981000D01*
X197476480Y-74981000D01*
X197697473Y-75002668D01*
G04 #@! TA.AperFunction,Conductor*
D18*
G36*
X197697473Y-75002668D02*
G01*
X197887433Y-75060021D01*
X198062631Y-75153176D01*
X198216395Y-75278582D01*
X198342876Y-75431472D01*
X198437253Y-75606017D01*
X198495928Y-75795565D01*
X198519000Y-76015087D01*
X198519000Y-78224748D01*
X198490898Y-78156903D01*
X198356180Y-77955283D01*
X198184717Y-77783820D01*
X197983097Y-77649102D01*
X197759069Y-77556307D01*
X197521243Y-77509000D01*
X197278757Y-77509000D01*
X197040931Y-77556307D01*
X196816903Y-77649102D01*
X196615283Y-77783820D01*
X196443820Y-77955283D01*
X196309102Y-78156903D01*
X196216307Y-78380931D01*
X196169000Y-78618757D01*
X196169000Y-78861243D01*
X196216307Y-79099069D01*
X196309102Y-79323097D01*
X196443820Y-79524717D01*
X196615283Y-79696180D01*
X196816903Y-79830898D01*
X197040931Y-79923693D01*
X197278757Y-79971000D01*
X197521243Y-79971000D01*
X197759069Y-79923693D01*
X197983097Y-79830898D01*
X198184717Y-79696180D01*
X198356180Y-79524717D01*
X198490898Y-79323097D01*
X198519000Y-79255251D01*
X198519001Y-80764749D01*
X198490898Y-80696903D01*
X198356180Y-80495283D01*
X198184717Y-80323820D01*
X197983097Y-80189102D01*
X197759069Y-80096307D01*
X197521243Y-80049000D01*
X197278757Y-80049000D01*
X197040931Y-80096307D01*
X196816903Y-80189102D01*
X196615283Y-80323820D01*
X196443820Y-80495283D01*
X196309102Y-80696903D01*
X196216307Y-80920931D01*
X196169000Y-81158757D01*
X196169000Y-81401243D01*
X196216307Y-81639069D01*
X196309102Y-81863097D01*
X196443820Y-82064717D01*
X196615283Y-82236180D01*
X196816903Y-82370898D01*
X197040931Y-82463693D01*
X197278757Y-82511000D01*
X197521243Y-82511000D01*
X197759069Y-82463693D01*
X197983097Y-82370898D01*
X198184717Y-82236180D01*
X198356180Y-82064717D01*
X198490898Y-81863097D01*
X198519001Y-81795251D01*
X198519001Y-83304750D01*
X198490898Y-83236903D01*
X198356180Y-83035283D01*
X198184717Y-82863820D01*
X197983097Y-82729102D01*
X197759069Y-82636307D01*
X197521243Y-82589000D01*
X197278757Y-82589000D01*
X197040931Y-82636307D01*
X196816903Y-82729102D01*
X196615283Y-82863820D01*
X196443820Y-83035283D01*
X196309102Y-83236903D01*
X196216307Y-83460931D01*
X196169000Y-83698757D01*
X196169000Y-83941243D01*
X196216307Y-84179069D01*
X196309102Y-84403097D01*
X196443820Y-84604717D01*
X196615283Y-84776180D01*
X196816903Y-84910898D01*
X197040931Y-85003693D01*
X197117884Y-85019000D01*
X178523520Y-85019000D01*
X178302523Y-84997331D01*
X178112568Y-84939979D01*
X177937369Y-84846824D01*
X177783605Y-84721418D01*
X177657124Y-84568528D01*
X177562747Y-84393983D01*
X177504072Y-84204433D01*
X177503607Y-84200000D01*
X184815705Y-84200000D01*
X184819000Y-84233453D01*
X184819000Y-84267073D01*
X184825559Y-84300047D01*
X184828854Y-84333499D01*
X184838612Y-84365668D01*
X184845171Y-84398640D01*
X184858035Y-84429696D01*
X184867794Y-84461868D01*
X184883642Y-84491517D01*
X184896506Y-84522574D01*
X184915183Y-84550525D01*
X184931030Y-84580174D01*
X184952357Y-84606162D01*
X184971033Y-84634112D01*
X184994800Y-84657879D01*
X185016130Y-84683870D01*
X185042121Y-84705200D01*
X185065888Y-84728967D01*
X185093838Y-84747643D01*
X185119826Y-84768970D01*
X185149475Y-84784817D01*
X185177426Y-84803494D01*
X185208483Y-84816358D01*
X185238132Y-84832206D01*
X185270304Y-84841965D01*
X185301360Y-84854829D01*
X185334332Y-84861388D01*
X185366501Y-84871146D01*
X185399953Y-84874441D01*
X185432927Y-84881000D01*
X192466547Y-84881000D01*
X192500000Y-84884295D01*
X192533453Y-84881000D01*
X192633499Y-84871146D01*
X192761868Y-84832206D01*
X192880174Y-84768970D01*
X192983870Y-84683870D01*
X193005204Y-84657874D01*
X193988180Y-83674899D01*
X194006162Y-83660143D01*
X194034112Y-83641467D01*
X194057879Y-83617700D01*
X194083870Y-83596370D01*
X194105200Y-83570379D01*
X194128967Y-83546612D01*
X194147643Y-83518662D01*
X194168970Y-83492674D01*
X194184817Y-83463025D01*
X194203494Y-83435074D01*
X194216358Y-83404017D01*
X194232206Y-83374368D01*
X194241965Y-83342196D01*
X194254829Y-83311140D01*
X194261388Y-83278168D01*
X194271146Y-83245999D01*
X194274441Y-83212547D01*
X194281000Y-83179573D01*
X194281000Y-83145953D01*
X194284295Y-83112500D01*
X194281000Y-83079047D01*
X194281000Y-83045427D01*
X194274441Y-83012453D01*
X194271146Y-82979001D01*
X194261388Y-82946832D01*
X194254829Y-82913860D01*
X194241965Y-82882804D01*
X194232206Y-82850632D01*
X194216358Y-82820983D01*
X194203494Y-82789926D01*
X194184817Y-82761975D01*
X194168970Y-82732326D01*
X194147643Y-82706338D01*
X194128967Y-82678388D01*
X194105200Y-82654621D01*
X194083870Y-82628630D01*
X194057879Y-82607300D01*
X194034112Y-82583533D01*
X194006162Y-82564857D01*
X193980174Y-82543530D01*
X193950525Y-82527683D01*
X193922574Y-82509006D01*
X193891517Y-82496142D01*
X193861868Y-82480294D01*
X193829696Y-82470535D01*
X193798640Y-82457671D01*
X193765668Y-82451112D01*
X193733499Y-82441354D01*
X193700047Y-82438059D01*
X193667073Y-82431500D01*
X193620950Y-82431500D01*
X193587499Y-82428205D01*
X193554048Y-82431500D01*
X193532927Y-82431500D01*
X193512213Y-82435620D01*
X193454001Y-82441354D01*
X193325632Y-82480294D01*
X193207326Y-82543530D01*
X193103630Y-82628630D01*
X193082304Y-82654616D01*
X192217922Y-83519000D01*
X185432927Y-83519000D01*
X185399953Y-83525559D01*
X185366501Y-83528854D01*
X185334332Y-83538612D01*
X185301360Y-83545171D01*
X185270304Y-83558035D01*
X185238132Y-83567794D01*
X185208483Y-83583642D01*
X185177426Y-83596506D01*
X185149475Y-83615183D01*
X185119826Y-83631030D01*
X185093838Y-83652357D01*
X185065888Y-83671033D01*
X185042121Y-83694800D01*
X185016130Y-83716130D01*
X184994800Y-83742121D01*
X184971033Y-83765888D01*
X184952357Y-83793838D01*
X184931030Y-83819826D01*
X184915183Y-83849475D01*
X184896506Y-83877426D01*
X184883642Y-83908483D01*
X184867794Y-83938132D01*
X184858035Y-83970304D01*
X184845171Y-84001360D01*
X184838612Y-84034332D01*
X184828854Y-84066501D01*
X184825559Y-84099953D01*
X184819000Y-84132927D01*
X184819000Y-84166547D01*
X184815705Y-84200000D01*
X177503607Y-84200000D01*
X177481000Y-83984914D01*
X177481000Y-82820465D01*
X181799000Y-82820465D01*
X181799000Y-82959535D01*
X181826131Y-83095933D01*
X181879351Y-83224416D01*
X181956614Y-83340049D01*
X182054951Y-83438386D01*
X182170584Y-83515649D01*
X182299067Y-83568869D01*
X182435465Y-83596000D01*
X182574535Y-83596000D01*
X182710933Y-83568869D01*
X182839416Y-83515649D01*
X182955049Y-83438386D01*
X183053386Y-83340049D01*
X183130649Y-83224416D01*
X183183869Y-83095933D01*
X183211000Y-82959535D01*
X183211000Y-82820465D01*
X183183869Y-82684067D01*
X183130649Y-82555584D01*
X183053386Y-82439951D01*
X182955049Y-82341614D01*
X182839416Y-82264351D01*
X182710933Y-82211131D01*
X182574535Y-82184000D01*
X182435465Y-82184000D01*
X182299067Y-82211131D01*
X182170584Y-82264351D01*
X182054951Y-82341614D01*
X181956614Y-82439951D01*
X181879351Y-82555584D01*
X181826131Y-82684067D01*
X181799000Y-82820465D01*
X177481000Y-82820465D01*
X177481000Y-80182927D01*
X181719000Y-80182927D01*
X181719000Y-80317073D01*
X181745171Y-80448640D01*
X181796506Y-80572574D01*
X181871033Y-80684112D01*
X181965888Y-80778967D01*
X182077426Y-80853494D01*
X182201360Y-80904829D01*
X182332927Y-80931000D01*
X182467073Y-80931000D01*
X182598640Y-80904829D01*
X182656166Y-80881001D01*
X185900153Y-80881001D01*
X185924999Y-80883448D01*
X185949845Y-80881001D01*
X185949853Y-80881001D01*
X186024192Y-80873679D01*
X186119574Y-80844746D01*
X186207478Y-80797760D01*
X186284526Y-80734528D01*
X186300375Y-80715216D01*
X186934592Y-80081000D01*
X186967073Y-80081000D01*
X187098640Y-80054829D01*
X187222574Y-80003494D01*
X187334112Y-79928967D01*
X187428967Y-79834112D01*
X187503494Y-79722574D01*
X187554829Y-79598640D01*
X187581000Y-79467073D01*
X187581000Y-79332927D01*
X187554829Y-79201360D01*
X187503494Y-79077426D01*
X187428967Y-78965888D01*
X187334112Y-78871033D01*
X187222574Y-78796506D01*
X187110298Y-78750000D01*
X187222574Y-78703494D01*
X187334112Y-78628967D01*
X187428967Y-78534112D01*
X187503494Y-78422574D01*
X187554829Y-78298640D01*
X187581000Y-78167073D01*
X187581000Y-78032927D01*
X187554829Y-77901360D01*
X187503494Y-77777426D01*
X187428967Y-77665888D01*
X187334112Y-77571033D01*
X187222574Y-77496506D01*
X187098640Y-77445171D01*
X186967073Y-77419000D01*
X186832927Y-77419000D01*
X186701360Y-77445171D01*
X186577426Y-77496506D01*
X186465888Y-77571033D01*
X186371033Y-77665888D01*
X186296506Y-77777426D01*
X186245171Y-77901360D01*
X186219000Y-78032927D01*
X186219000Y-78065408D01*
X185071682Y-79212727D01*
X184972574Y-79146506D01*
X184848640Y-79095171D01*
X184717073Y-79069000D01*
X184582927Y-79069000D01*
X184451360Y-79095171D01*
X184327426Y-79146506D01*
X184215888Y-79221033D01*
X184121033Y-79315888D01*
X184046506Y-79427426D01*
X183995171Y-79551360D01*
X183969000Y-79682927D01*
X183969000Y-79817073D01*
X183979329Y-79869001D01*
X182964456Y-79869001D01*
X182928967Y-79815888D01*
X182834112Y-79721033D01*
X182722574Y-79646506D01*
X182598640Y-79595171D01*
X182467073Y-79569000D01*
X182332927Y-79569000D01*
X182201360Y-79595171D01*
X182077426Y-79646506D01*
X181965888Y-79721033D01*
X181871033Y-79815888D01*
X181796506Y-79927426D01*
X181745171Y-80051360D01*
X181719000Y-80182927D01*
X177481000Y-80182927D01*
X177481000Y-77040465D01*
X181799000Y-77040465D01*
X181799000Y-77179535D01*
X181826131Y-77315933D01*
X181879351Y-77444416D01*
X181956614Y-77560049D01*
X182054951Y-77658386D01*
X182170584Y-77735649D01*
X182299067Y-77788869D01*
X182435465Y-77816000D01*
X182574535Y-77816000D01*
X182710933Y-77788869D01*
X182839416Y-77735649D01*
X182955049Y-77658386D01*
X183053386Y-77560049D01*
X183130649Y-77444416D01*
X183183869Y-77315933D01*
X183193005Y-77270000D01*
X190915705Y-77270000D01*
X190919000Y-77303453D01*
X190919000Y-77337073D01*
X190925559Y-77370048D01*
X190928854Y-77403498D01*
X190938611Y-77435663D01*
X190945171Y-77468640D01*
X190958038Y-77499704D01*
X190967795Y-77531868D01*
X190983638Y-77561508D01*
X190996506Y-77592574D01*
X191015190Y-77620536D01*
X191031031Y-77650173D01*
X191052349Y-77676150D01*
X191071033Y-77704112D01*
X191165888Y-77798967D01*
X191165891Y-77798969D01*
X194436033Y-81069112D01*
X194530888Y-81163967D01*
X194558841Y-81182644D01*
X194584826Y-81203970D01*
X194614476Y-81219818D01*
X194642426Y-81238494D01*
X194673479Y-81251357D01*
X194703131Y-81267206D01*
X194735306Y-81276966D01*
X194766360Y-81289829D01*
X194799331Y-81296388D01*
X194831501Y-81306146D01*
X194864953Y-81309441D01*
X194897927Y-81316000D01*
X194931547Y-81316000D01*
X194965000Y-81319295D01*
X194998453Y-81316000D01*
X195032073Y-81316000D01*
X195065047Y-81309441D01*
X195098499Y-81306146D01*
X195130668Y-81296388D01*
X195163640Y-81289829D01*
X195194696Y-81276965D01*
X195226868Y-81267206D01*
X195256517Y-81251358D01*
X195287574Y-81238494D01*
X195315525Y-81219817D01*
X195345174Y-81203970D01*
X195371159Y-81182645D01*
X195399112Y-81163967D01*
X195422887Y-81140192D01*
X195448869Y-81118869D01*
X195470192Y-81092887D01*
X195493967Y-81069112D01*
X195512645Y-81041159D01*
X195533970Y-81015174D01*
X195549817Y-80985525D01*
X195568494Y-80957574D01*
X195581358Y-80926517D01*
X195597206Y-80896868D01*
X195606965Y-80864696D01*
X195619829Y-80833640D01*
X195626388Y-80800668D01*
X195636146Y-80768499D01*
X195639441Y-80735047D01*
X195646000Y-80702073D01*
X195646000Y-80668453D01*
X195649295Y-80635000D01*
X195646000Y-80601547D01*
X195646000Y-80567927D01*
X195639441Y-80534953D01*
X195636146Y-80501501D01*
X195626388Y-80469331D01*
X195619829Y-80436360D01*
X195606966Y-80405306D01*
X195597206Y-80373131D01*
X195581357Y-80343479D01*
X195568494Y-80312426D01*
X195549818Y-80284476D01*
X195533970Y-80254826D01*
X195512644Y-80228841D01*
X195493967Y-80200888D01*
X195399112Y-80106033D01*
X192128969Y-76835891D01*
X192128967Y-76835888D01*
X192034112Y-76741033D01*
X192006150Y-76722349D01*
X191980173Y-76701031D01*
X191950536Y-76685190D01*
X191922574Y-76666506D01*
X191891508Y-76653638D01*
X191861868Y-76637795D01*
X191829704Y-76628038D01*
X191798640Y-76615171D01*
X191765663Y-76608611D01*
X191733498Y-76598854D01*
X191700048Y-76595559D01*
X191667073Y-76589000D01*
X191633453Y-76589000D01*
X191600000Y-76585705D01*
X191566547Y-76589000D01*
X191532927Y-76589000D01*
X191499952Y-76595559D01*
X191466502Y-76598854D01*
X191434337Y-76608611D01*
X191401360Y-76615171D01*
X191370296Y-76628038D01*
X191338132Y-76637795D01*
X191308492Y-76653638D01*
X191277426Y-76666506D01*
X191249464Y-76685190D01*
X191219827Y-76701031D01*
X191193850Y-76722349D01*
X191165888Y-76741033D01*
X191142111Y-76764810D01*
X191116131Y-76786131D01*
X191094810Y-76812111D01*
X191071033Y-76835888D01*
X191052349Y-76863850D01*
X191031031Y-76889827D01*
X191015190Y-76919464D01*
X190996506Y-76947426D01*
X190983638Y-76978492D01*
X190967795Y-77008132D01*
X190958038Y-77040296D01*
X190945171Y-77071360D01*
X190938611Y-77104337D01*
X190928854Y-77136502D01*
X190925559Y-77169952D01*
X190919000Y-77202927D01*
X190919000Y-77236547D01*
X190915705Y-77270000D01*
X183193005Y-77270000D01*
X183211000Y-77179535D01*
X183211000Y-77040465D01*
X183183869Y-76904067D01*
X183130649Y-76775584D01*
X183053386Y-76659951D01*
X182955049Y-76561614D01*
X182839416Y-76484351D01*
X182710933Y-76431131D01*
X182574535Y-76404000D01*
X182435465Y-76404000D01*
X182299067Y-76431131D01*
X182170584Y-76484351D01*
X182054951Y-76561614D01*
X181956614Y-76659951D01*
X181879351Y-76775584D01*
X181826131Y-76904067D01*
X181799000Y-77040465D01*
X177481000Y-77040465D01*
X177481000Y-76023520D01*
X177502668Y-75802527D01*
X177560021Y-75612567D01*
X177653176Y-75437369D01*
X177778582Y-75283605D01*
X177931472Y-75157124D01*
X178106017Y-75062747D01*
X178295565Y-75004072D01*
X178515087Y-74981000D01*
X197476480Y-74981000D01*
X197697473Y-75002668D01*
G37*
G04 #@! TD.AperFunction*
M02*
