G04 #@! TF.GenerationSoftware,KiCad,Pcbnew,5.1.9*
G04 #@! TF.CreationDate,2021-01-09T08:42:39+01:00*
G04 #@! TF.ProjectId,CH330,43483333-302e-46b6-9963-61645f706362,rev?*
G04 #@! TF.SameCoordinates,Original*
G04 #@! TF.FileFunction,Soldermask,Top*
G04 #@! TF.FilePolarity,Negative*
%FSLAX46Y46*%
G04 Gerber Fmt 4.6, Leading zero omitted, Abs format (unit mm)*
G04 Created by KiCad (PCBNEW 5.1.9) date 2021-01-09 08:42:39*
%MOMM*%
%LPD*%
G01*
G04 APERTURE LIST*
%ADD10O,2.500000X1.400000*%
%ADD11O,2.000000X1.400000*%
%ADD12C,1.050000*%
%ADD13O,2.100000X2.100000*%
G04 APERTURE END LIST*
D10*
X183005000Y-75680000D03*
X183005000Y-84320000D03*
D11*
X178825000Y-75680000D03*
X178825000Y-84320000D03*
D12*
X182505000Y-82890000D03*
X182505000Y-77110000D03*
G36*
G01*
X182995000Y-82700000D02*
X184145000Y-82700000D01*
G75*
G02*
X184345000Y-82900000I0J-200000D01*
G01*
X184345000Y-83200000D01*
G75*
G02*
X184145000Y-83400000I-200000J0D01*
G01*
X182995000Y-83400000D01*
G75*
G02*
X182795000Y-83200000I0J200000D01*
G01*
X182795000Y-82900000D01*
G75*
G02*
X182995000Y-82700000I200000J0D01*
G01*
G37*
G36*
G01*
X182995000Y-81900000D02*
X184145000Y-81900000D01*
G75*
G02*
X184345000Y-82100000I0J-200000D01*
G01*
X184345000Y-82400000D01*
G75*
G02*
X184145000Y-82600000I-200000J0D01*
G01*
X182995000Y-82600000D01*
G75*
G02*
X182795000Y-82400000I0J200000D01*
G01*
X182795000Y-82100000D01*
G75*
G02*
X182995000Y-81900000I200000J0D01*
G01*
G37*
G36*
G01*
X182995000Y-81400000D02*
X184145000Y-81400000D01*
G75*
G02*
X184345000Y-81600000I0J-200000D01*
G01*
X184345000Y-81900000D01*
G75*
G02*
X184145000Y-82100000I-200000J0D01*
G01*
X182995000Y-82100000D01*
G75*
G02*
X182795000Y-81900000I0J200000D01*
G01*
X182795000Y-81600000D01*
G75*
G02*
X182995000Y-81400000I200000J0D01*
G01*
G37*
G36*
G01*
X182995000Y-80900000D02*
X184145000Y-80900000D01*
G75*
G02*
X184345000Y-81100000I0J-200000D01*
G01*
X184345000Y-81400000D01*
G75*
G02*
X184145000Y-81600000I-200000J0D01*
G01*
X182995000Y-81600000D01*
G75*
G02*
X182795000Y-81400000I0J200000D01*
G01*
X182795000Y-81100000D01*
G75*
G02*
X182995000Y-80900000I200000J0D01*
G01*
G37*
G36*
G01*
X182995000Y-80400000D02*
X184145000Y-80400000D01*
G75*
G02*
X184345000Y-80600000I0J-200000D01*
G01*
X184345000Y-80900000D01*
G75*
G02*
X184145000Y-81100000I-200000J0D01*
G01*
X182995000Y-81100000D01*
G75*
G02*
X182795000Y-80900000I0J200000D01*
G01*
X182795000Y-80600000D01*
G75*
G02*
X182995000Y-80400000I200000J0D01*
G01*
G37*
G36*
G01*
X182995000Y-79900000D02*
X184145000Y-79900000D01*
G75*
G02*
X184345000Y-80100000I0J-200000D01*
G01*
X184345000Y-80400000D01*
G75*
G02*
X184145000Y-80600000I-200000J0D01*
G01*
X182995000Y-80600000D01*
G75*
G02*
X182795000Y-80400000I0J200000D01*
G01*
X182795000Y-80100000D01*
G75*
G02*
X182995000Y-79900000I200000J0D01*
G01*
G37*
G36*
G01*
X182995000Y-79400000D02*
X184145000Y-79400000D01*
G75*
G02*
X184345000Y-79600000I0J-200000D01*
G01*
X184345000Y-79900000D01*
G75*
G02*
X184145000Y-80100000I-200000J0D01*
G01*
X182995000Y-80100000D01*
G75*
G02*
X182795000Y-79900000I0J200000D01*
G01*
X182795000Y-79600000D01*
G75*
G02*
X182995000Y-79400000I200000J0D01*
G01*
G37*
G36*
G01*
X182995000Y-78900000D02*
X184145000Y-78900000D01*
G75*
G02*
X184345000Y-79100000I0J-200000D01*
G01*
X184345000Y-79400000D01*
G75*
G02*
X184145000Y-79600000I-200000J0D01*
G01*
X182995000Y-79600000D01*
G75*
G02*
X182795000Y-79400000I0J200000D01*
G01*
X182795000Y-79100000D01*
G75*
G02*
X182995000Y-78900000I200000J0D01*
G01*
G37*
G36*
G01*
X182995000Y-78400000D02*
X184145000Y-78400000D01*
G75*
G02*
X184345000Y-78600000I0J-200000D01*
G01*
X184345000Y-78900000D01*
G75*
G02*
X184145000Y-79100000I-200000J0D01*
G01*
X182995000Y-79100000D01*
G75*
G02*
X182795000Y-78900000I0J200000D01*
G01*
X182795000Y-78600000D01*
G75*
G02*
X182995000Y-78400000I200000J0D01*
G01*
G37*
G36*
G01*
X182995000Y-77900000D02*
X184145000Y-77900000D01*
G75*
G02*
X184345000Y-78100000I0J-200000D01*
G01*
X184345000Y-78400000D01*
G75*
G02*
X184145000Y-78600000I-200000J0D01*
G01*
X182995000Y-78600000D01*
G75*
G02*
X182795000Y-78400000I0J200000D01*
G01*
X182795000Y-78100000D01*
G75*
G02*
X182995000Y-77900000I200000J0D01*
G01*
G37*
G36*
G01*
X182995000Y-77100000D02*
X184145000Y-77100000D01*
G75*
G02*
X184345000Y-77300000I0J-200000D01*
G01*
X184345000Y-77600000D01*
G75*
G02*
X184145000Y-77800000I-200000J0D01*
G01*
X182995000Y-77800000D01*
G75*
G02*
X182795000Y-77600000I0J200000D01*
G01*
X182795000Y-77300000D01*
G75*
G02*
X182995000Y-77100000I200000J0D01*
G01*
G37*
G36*
G01*
X182995000Y-76300000D02*
X184145000Y-76300000D01*
G75*
G02*
X184345000Y-76500000I0J-200000D01*
G01*
X184345000Y-76800000D01*
G75*
G02*
X184145000Y-77000000I-200000J0D01*
G01*
X182995000Y-77000000D01*
G75*
G02*
X182795000Y-76800000I0J200000D01*
G01*
X182795000Y-76500000D01*
G75*
G02*
X182995000Y-76300000I200000J0D01*
G01*
G37*
G36*
G01*
X182995000Y-76600000D02*
X184145000Y-76600000D01*
G75*
G02*
X184345000Y-76800000I0J-200000D01*
G01*
X184345000Y-77100000D01*
G75*
G02*
X184145000Y-77300000I-200000J0D01*
G01*
X182995000Y-77300000D01*
G75*
G02*
X182795000Y-77100000I0J200000D01*
G01*
X182795000Y-76800000D01*
G75*
G02*
X182995000Y-76600000I200000J0D01*
G01*
G37*
G36*
G01*
X182995000Y-77400000D02*
X184145000Y-77400000D01*
G75*
G02*
X184345000Y-77600000I0J-200000D01*
G01*
X184345000Y-77900000D01*
G75*
G02*
X184145000Y-78100000I-200000J0D01*
G01*
X182995000Y-78100000D01*
G75*
G02*
X182795000Y-77900000I0J200000D01*
G01*
X182795000Y-77600000D01*
G75*
G02*
X182995000Y-77400000I200000J0D01*
G01*
G37*
G36*
G01*
X182995000Y-82200000D02*
X184145000Y-82200000D01*
G75*
G02*
X184345000Y-82400000I0J-200000D01*
G01*
X184345000Y-82700000D01*
G75*
G02*
X184145000Y-82900000I-200000J0D01*
G01*
X182995000Y-82900000D01*
G75*
G02*
X182795000Y-82700000I0J200000D01*
G01*
X182795000Y-82400000D01*
G75*
G02*
X182995000Y-82200000I200000J0D01*
G01*
G37*
G36*
G01*
X182995000Y-83000000D02*
X184145000Y-83000000D01*
G75*
G02*
X184345000Y-83200000I0J-200000D01*
G01*
X184345000Y-83500000D01*
G75*
G02*
X184145000Y-83700000I-200000J0D01*
G01*
X182995000Y-83700000D01*
G75*
G02*
X182795000Y-83500000I0J200000D01*
G01*
X182795000Y-83200000D01*
G75*
G02*
X182995000Y-83000000I200000J0D01*
G01*
G37*
D13*
X197400000Y-83820000D03*
X197400000Y-81280000D03*
X197400000Y-78740000D03*
G36*
G01*
X196350000Y-77050000D02*
X196350000Y-75350000D01*
G75*
G02*
X196550000Y-75150000I200000J0D01*
G01*
X198250000Y-75150000D01*
G75*
G02*
X198450000Y-75350000I0J-200000D01*
G01*
X198450000Y-77050000D01*
G75*
G02*
X198250000Y-77250000I-200000J0D01*
G01*
X196550000Y-77250000D01*
G75*
G02*
X196350000Y-77050000I0J200000D01*
G01*
G37*
G36*
G01*
X194050000Y-76156250D02*
X194050000Y-75443750D01*
G75*
G02*
X194368750Y-75125000I318750J0D01*
G01*
X195006250Y-75125000D01*
G75*
G02*
X195325000Y-75443750I0J-318750D01*
G01*
X195325000Y-76156250D01*
G75*
G02*
X195006250Y-76475000I-318750J0D01*
G01*
X194368750Y-76475000D01*
G75*
G02*
X194050000Y-76156250I0J318750D01*
G01*
G37*
G36*
G01*
X192475000Y-76156250D02*
X192475000Y-75443750D01*
G75*
G02*
X192793750Y-75125000I318750J0D01*
G01*
X193431250Y-75125000D01*
G75*
G02*
X193750000Y-75443750I0J-318750D01*
G01*
X193750000Y-76156250D01*
G75*
G02*
X193431250Y-76475000I-318750J0D01*
G01*
X192793750Y-76475000D01*
G75*
G02*
X192475000Y-76156250I0J318750D01*
G01*
G37*
G36*
G01*
X195325000Y-83843750D02*
X195325000Y-84556250D01*
G75*
G02*
X195006250Y-84875000I-318750J0D01*
G01*
X194368750Y-84875000D01*
G75*
G02*
X194050000Y-84556250I0J318750D01*
G01*
X194050000Y-83843750D01*
G75*
G02*
X194368750Y-83525000I318750J0D01*
G01*
X195006250Y-83525000D01*
G75*
G02*
X195325000Y-83843750I0J-318750D01*
G01*
G37*
G36*
G01*
X193750000Y-83843750D02*
X193750000Y-84556250D01*
G75*
G02*
X193431250Y-84875000I-318750J0D01*
G01*
X192793750Y-84875000D01*
G75*
G02*
X192475000Y-84556250I0J318750D01*
G01*
X192475000Y-83843750D01*
G75*
G02*
X192793750Y-83525000I318750J0D01*
G01*
X193431250Y-83525000D01*
G75*
G02*
X193750000Y-83843750I0J-318750D01*
G01*
G37*
G36*
G01*
X187550000Y-75443750D02*
X187550000Y-76156250D01*
G75*
G02*
X187231250Y-76475000I-318750J0D01*
G01*
X186593750Y-76475000D01*
G75*
G02*
X186275000Y-76156250I0J318750D01*
G01*
X186275000Y-75443750D01*
G75*
G02*
X186593750Y-75125000I318750J0D01*
G01*
X187231250Y-75125000D01*
G75*
G02*
X187550000Y-75443750I0J-318750D01*
G01*
G37*
G36*
G01*
X189125000Y-75443750D02*
X189125000Y-76156250D01*
G75*
G02*
X188806250Y-76475000I-318750J0D01*
G01*
X188168750Y-76475000D01*
G75*
G02*
X187850000Y-76156250I0J318750D01*
G01*
X187850000Y-75443750D01*
G75*
G02*
X188168750Y-75125000I318750J0D01*
G01*
X188806250Y-75125000D01*
G75*
G02*
X189125000Y-75443750I0J-318750D01*
G01*
G37*
G36*
G01*
X189125000Y-83843750D02*
X189125000Y-84556250D01*
G75*
G02*
X188806250Y-84875000I-318750J0D01*
G01*
X188168750Y-84875000D01*
G75*
G02*
X187850000Y-84556250I0J318750D01*
G01*
X187850000Y-83843750D01*
G75*
G02*
X188168750Y-83525000I318750J0D01*
G01*
X188806250Y-83525000D01*
G75*
G02*
X189125000Y-83843750I0J-318750D01*
G01*
G37*
G36*
G01*
X187550000Y-83843750D02*
X187550000Y-84556250D01*
G75*
G02*
X187231250Y-84875000I-318750J0D01*
G01*
X186593750Y-84875000D01*
G75*
G02*
X186275000Y-84556250I0J318750D01*
G01*
X186275000Y-83843750D01*
G75*
G02*
X186593750Y-83525000I318750J0D01*
G01*
X187231250Y-83525000D01*
G75*
G02*
X187550000Y-83843750I0J-318750D01*
G01*
G37*
G36*
G01*
X187225000Y-78395000D02*
X187225000Y-77795000D01*
G75*
G02*
X187425000Y-77595000I200000J0D01*
G01*
X188975000Y-77595000D01*
G75*
G02*
X189175000Y-77795000I0J-200000D01*
G01*
X189175000Y-78395000D01*
G75*
G02*
X188975000Y-78595000I-200000J0D01*
G01*
X187425000Y-78595000D01*
G75*
G02*
X187225000Y-78395000I0J200000D01*
G01*
G37*
G36*
G01*
X187225000Y-79665000D02*
X187225000Y-79065000D01*
G75*
G02*
X187425000Y-78865000I200000J0D01*
G01*
X188975000Y-78865000D01*
G75*
G02*
X189175000Y-79065000I0J-200000D01*
G01*
X189175000Y-79665000D01*
G75*
G02*
X188975000Y-79865000I-200000J0D01*
G01*
X187425000Y-79865000D01*
G75*
G02*
X187225000Y-79665000I0J200000D01*
G01*
G37*
G36*
G01*
X187225000Y-80935000D02*
X187225000Y-80335000D01*
G75*
G02*
X187425000Y-80135000I200000J0D01*
G01*
X188975000Y-80135000D01*
G75*
G02*
X189175000Y-80335000I0J-200000D01*
G01*
X189175000Y-80935000D01*
G75*
G02*
X188975000Y-81135000I-200000J0D01*
G01*
X187425000Y-81135000D01*
G75*
G02*
X187225000Y-80935000I0J200000D01*
G01*
G37*
G36*
G01*
X187225000Y-82205000D02*
X187225000Y-81605000D01*
G75*
G02*
X187425000Y-81405000I200000J0D01*
G01*
X188975000Y-81405000D01*
G75*
G02*
X189175000Y-81605000I0J-200000D01*
G01*
X189175000Y-82205000D01*
G75*
G02*
X188975000Y-82405000I-200000J0D01*
G01*
X187425000Y-82405000D01*
G75*
G02*
X187225000Y-82205000I0J200000D01*
G01*
G37*
G36*
G01*
X192625000Y-82205000D02*
X192625000Y-81605000D01*
G75*
G02*
X192825000Y-81405000I200000J0D01*
G01*
X194375000Y-81405000D01*
G75*
G02*
X194575000Y-81605000I0J-200000D01*
G01*
X194575000Y-82205000D01*
G75*
G02*
X194375000Y-82405000I-200000J0D01*
G01*
X192825000Y-82405000D01*
G75*
G02*
X192625000Y-82205000I0J200000D01*
G01*
G37*
G36*
G01*
X192625000Y-80935000D02*
X192625000Y-80335000D01*
G75*
G02*
X192825000Y-80135000I200000J0D01*
G01*
X194375000Y-80135000D01*
G75*
G02*
X194575000Y-80335000I0J-200000D01*
G01*
X194575000Y-80935000D01*
G75*
G02*
X194375000Y-81135000I-200000J0D01*
G01*
X192825000Y-81135000D01*
G75*
G02*
X192625000Y-80935000I0J200000D01*
G01*
G37*
G36*
G01*
X192625000Y-79665000D02*
X192625000Y-79065000D01*
G75*
G02*
X192825000Y-78865000I200000J0D01*
G01*
X194375000Y-78865000D01*
G75*
G02*
X194575000Y-79065000I0J-200000D01*
G01*
X194575000Y-79665000D01*
G75*
G02*
X194375000Y-79865000I-200000J0D01*
G01*
X192825000Y-79865000D01*
G75*
G02*
X192625000Y-79665000I0J200000D01*
G01*
G37*
G36*
G01*
X192625000Y-78395000D02*
X192625000Y-77795000D01*
G75*
G02*
X192825000Y-77595000I200000J0D01*
G01*
X194375000Y-77595000D01*
G75*
G02*
X194575000Y-77795000I0J-200000D01*
G01*
X194575000Y-78395000D01*
G75*
G02*
X194375000Y-78595000I-200000J0D01*
G01*
X192825000Y-78595000D01*
G75*
G02*
X192625000Y-78395000I0J200000D01*
G01*
G37*
G36*
G01*
X190950000Y-76156250D02*
X190950000Y-75443750D01*
G75*
G02*
X191268750Y-75125000I318750J0D01*
G01*
X191906250Y-75125000D01*
G75*
G02*
X192225000Y-75443750I0J-318750D01*
G01*
X192225000Y-76156250D01*
G75*
G02*
X191906250Y-76475000I-318750J0D01*
G01*
X191268750Y-76475000D01*
G75*
G02*
X190950000Y-76156250I0J318750D01*
G01*
G37*
G36*
G01*
X189375000Y-76156250D02*
X189375000Y-75443750D01*
G75*
G02*
X189693750Y-75125000I318750J0D01*
G01*
X190331250Y-75125000D01*
G75*
G02*
X190650000Y-75443750I0J-318750D01*
G01*
X190650000Y-76156250D01*
G75*
G02*
X190331250Y-76475000I-318750J0D01*
G01*
X189693750Y-76475000D01*
G75*
G02*
X189375000Y-76156250I0J318750D01*
G01*
G37*
G36*
G01*
X189375000Y-84556250D02*
X189375000Y-83843750D01*
G75*
G02*
X189693750Y-83525000I318750J0D01*
G01*
X190331250Y-83525000D01*
G75*
G02*
X190650000Y-83843750I0J-318750D01*
G01*
X190650000Y-84556250D01*
G75*
G02*
X190331250Y-84875000I-318750J0D01*
G01*
X189693750Y-84875000D01*
G75*
G02*
X189375000Y-84556250I0J318750D01*
G01*
G37*
G36*
G01*
X190950000Y-84556250D02*
X190950000Y-83843750D01*
G75*
G02*
X191268750Y-83525000I318750J0D01*
G01*
X191906250Y-83525000D01*
G75*
G02*
X192225000Y-83843750I0J-318750D01*
G01*
X192225000Y-84556250D01*
G75*
G02*
X191906250Y-84875000I-318750J0D01*
G01*
X191268750Y-84875000D01*
G75*
G02*
X190950000Y-84556250I0J318750D01*
G01*
G37*
G36*
G01*
X185443750Y-76775000D02*
X186156250Y-76775000D01*
G75*
G02*
X186475000Y-77093750I0J-318750D01*
G01*
X186475000Y-77731250D01*
G75*
G02*
X186156250Y-78050000I-318750J0D01*
G01*
X185443750Y-78050000D01*
G75*
G02*
X185125000Y-77731250I0J318750D01*
G01*
X185125000Y-77093750D01*
G75*
G02*
X185443750Y-76775000I318750J0D01*
G01*
G37*
G36*
G01*
X185443750Y-78350000D02*
X186156250Y-78350000D01*
G75*
G02*
X186475000Y-78668750I0J-318750D01*
G01*
X186475000Y-79306250D01*
G75*
G02*
X186156250Y-79625000I-318750J0D01*
G01*
X185443750Y-79625000D01*
G75*
G02*
X185125000Y-79306250I0J318750D01*
G01*
X185125000Y-78668750D01*
G75*
G02*
X185443750Y-78350000I318750J0D01*
G01*
G37*
G36*
G01*
X186156250Y-81450000D02*
X185443750Y-81450000D01*
G75*
G02*
X185125000Y-81131250I0J318750D01*
G01*
X185125000Y-80493750D01*
G75*
G02*
X185443750Y-80175000I318750J0D01*
G01*
X186156250Y-80175000D01*
G75*
G02*
X186475000Y-80493750I0J-318750D01*
G01*
X186475000Y-81131250D01*
G75*
G02*
X186156250Y-81450000I-318750J0D01*
G01*
G37*
G36*
G01*
X186156250Y-83025000D02*
X185443750Y-83025000D01*
G75*
G02*
X185125000Y-82706250I0J318750D01*
G01*
X185125000Y-82068750D01*
G75*
G02*
X185443750Y-81750000I318750J0D01*
G01*
X186156250Y-81750000D01*
G75*
G02*
X186475000Y-82068750I0J-318750D01*
G01*
X186475000Y-82706250D01*
G75*
G02*
X186156250Y-83025000I-318750J0D01*
G01*
G37*
M02*
